<?xml version="1.0" encoding="UTF-8" standalone="no"?>
<!-- Created with Inkscape (http://www.inkscape.org/) -->

<svg
   width="1920"
   height="1080"
   viewBox="0 0 1920 1080"
   version="1.1"
   id="svg5"
   inkscape:version="1.2.2 (732a01da63, 2022-12-09)"
   sodipodi:docname="Ozadje.svg"
   xmlns:inkscape="http://www.inkscape.org/namespaces/inkscape"
   xmlns:sodipodi="http://sodipodi.sourceforge.net/DTD/sodipodi-0.dtd"
   xmlns:xlink="http://www.w3.org/1999/xlink"
   xmlns="http://www.w3.org/2000/svg"
   xmlns:svg="http://www.w3.org/2000/svg">
  <sodipodi:namedview
     id="namedview7"
     pagecolor="#ffffff"
     bordercolor="#000000"
     borderopacity="0.25"
     inkscape:showpageshadow="2"
     inkscape:pageopacity="0.0"
     inkscape:pagecheckerboard="0"
     inkscape:deskcolor="#d1d1d1"
     inkscape:document-units="px"
     showgrid="true"
     inkscape:zoom="0.89124917"
     inkscape:cx="1306.5931"
     inkscape:cy="457.78444"
     inkscape:window-width="1920"
     inkscape:window-height="1009"
     inkscape:window-x="-8"
     inkscape:window-y="-8"
     inkscape:window-maximized="1"
     inkscape:current-layer="layer1">
    <inkscape:grid
       type="xygrid"
       id="grid1153" />
  </sodipodi:namedview>
  <defs
     id="defs2">
    <linearGradient
       inkscape:collect="always"
       id="linearGradient28306">
      <stop
         style="stop-color:#172153;stop-opacity:1;"
         offset="0"
         id="stop28302" />
      <stop
         style="stop-color:#b9d9fb;stop-opacity:1;"
         offset="1"
         id="stop28304" />
    </linearGradient>
    <linearGradient
       inkscape:collect="always"
       id="linearGradient28227">
      <stop
         style="stop-color:#172153;stop-opacity:1;"
         offset="0"
         id="stop28223" />
      <stop
         style="stop-color:#e9f3ff;stop-opacity:1;"
         offset="1"
         id="stop28225" />
    </linearGradient>
    <linearGradient
       inkscape:collect="always"
       id="linearGradient28079">
      <stop
         style="stop-color:#172153;stop-opacity:1;"
         offset="0"
         id="stop28075" />
      <stop
         style="stop-color:#d9ebff;stop-opacity:1;"
         offset="1"
         id="stop28077" />
    </linearGradient>
    <linearGradient
       inkscape:collect="always"
       id="linearGradient27931">
      <stop
         style="stop-color:#172153;stop-opacity:1;"
         offset="0"
         id="stop27927" />
      <stop
         style="stop-color:#9cc9ff;stop-opacity:1;"
         offset="1"
         id="stop27929" />
    </linearGradient>
    <linearGradient
       inkscape:collect="always"
       id="linearGradient27783">
      <stop
         style="stop-color:#172153;stop-opacity:1;"
         offset="0"
         id="stop27779" />
      <stop
         style="stop-color:#98c7ff;stop-opacity:1;"
         offset="1"
         id="stop27781" />
    </linearGradient>
    <linearGradient
       inkscape:collect="always"
       id="linearGradient27359">
      <stop
         style="stop-color:#172153;stop-opacity:1;"
         offset="0"
         id="stop27355" />
      <stop
         style="stop-color:#cce4ff;stop-opacity:1;"
         offset="1"
         id="stop27357" />
    </linearGradient>
    <linearGradient
       inkscape:collect="always"
       id="linearGradient27004">
      <stop
         style="stop-color:#172153;stop-opacity:1;"
         offset="0.15434082"
         id="stop27000" />
      <stop
         style="stop-color:#c8e2ff;stop-opacity:1;"
         offset="1"
         id="stop27002" />
    </linearGradient>
    <linearGradient
       inkscape:collect="always"
       id="linearGradient24567">
      <stop
         style="stop-color:#172153;stop-opacity:1;"
         offset="0"
         id="stop24563" />
      <stop
         style="stop-color:#c5e1ff;stop-opacity:1;"
         offset="1"
         id="stop24565" />
    </linearGradient>
    <linearGradient
       id="linearGradient17404"
       inkscape:swatch="solid">
      <stop
         style="stop-color:#f56f46;stop-opacity:1;"
         offset="0"
         id="stop17402" />
    </linearGradient>
    <linearGradient
       inkscape:collect="always"
       id="linearGradient10129">
      <stop
         style="stop-color:#172153;stop-opacity:1;"
         offset="0.10932476"
         id="stop10125" />
      <stop
         style="stop-color:#0056bb;stop-opacity:0.96226418;"
         offset="0.46784562"
         id="stop10138" />
      <stop
         style="stop-color:#0056bb;stop-opacity:0.6855346;"
         offset="0.7403537"
         id="stop10140" />
      <stop
         style="stop-color:#0056bb;stop-opacity:1;"
         offset="1"
         id="stop10127" />
    </linearGradient>
    <linearGradient
       id="linearGradient6504"
       inkscape:swatch="solid">
      <stop
         style="stop-color:#ffffff;stop-opacity:1;"
         offset="0"
         id="stop6502" />
    </linearGradient>
    <linearGradient
       id="linearGradient2809"
       inkscape:swatch="solid">
      <stop
         style="stop-color:#172153;stop-opacity:1;"
         offset="0"
         id="stop2807" />
    </linearGradient>
    <linearGradient
       id="linearGradient2801"
       inkscape:swatch="solid">
      <stop
         style="stop-color:#172153;stop-opacity:1;"
         offset="0"
         id="stop2799" />
    </linearGradient>
    <linearGradient
       id="linearGradient2685"
       inkscape:swatch="solid">
      <stop
         style="stop-color:#2e3764;stop-opacity:1;"
         offset="0"
         id="stop2683" />
    </linearGradient>
    <linearGradient
       id="linearGradient1897"
       inkscape:swatch="solid">
      <stop
         style="stop-color:#2e3764;stop-opacity:1;"
         offset="0"
         id="stop1895" />
    </linearGradient>
    <linearGradient
       id="linearGradient1185"
       inkscape:swatch="solid">
      <stop
         style="stop-color:#ff0000;stop-opacity:1;"
         offset="0"
         id="stop1183" />
    </linearGradient>
    <linearGradient
       id="linearGradient1171"
       inkscape:swatch="solid">
      <stop
         style="stop-color:#0058c0;stop-opacity:1;"
         offset="0"
         id="stop1169" />
    </linearGradient>
    <linearGradient
       id="linearGradient1163"
       inkscape:swatch="solid">
      <stop
         style="stop-color:#ff0000;stop-opacity:1;"
         offset="0"
         id="stop1161" />
    </linearGradient>
    <linearGradient
       id="linearGradient1093"
       inkscape:swatch="solid">
      <stop
         style="stop-color:#ff0000;stop-opacity:1;"
         offset="0"
         id="stop1091" />
    </linearGradient>
    <linearGradient
       inkscape:collect="always"
       xlink:href="#linearGradient1897"
       id="linearGradient1899"
       x1="-868.49589"
       y1="312.59504"
       x2="1932.6956"
       y2="312.59504"
       gradientUnits="userSpaceOnUse"
       gradientTransform="translate(-3.1735515,22.214876)" />
    <linearGradient
       inkscape:collect="always"
       xlink:href="#linearGradient2685"
       id="linearGradient2687"
       x1="-898.82094"
       y1="685.46035"
       x2="1931.1659"
       y2="685.46035"
       gradientUnits="userSpaceOnUse"
       gradientTransform="matrix(1.0213066,0,0,1.2855975,4.8698651,-183.07154)" />
    <linearGradient
       inkscape:collect="always"
       xlink:href="#linearGradient2809"
       id="linearGradient2811"
       x1="-30.14876"
       y1="923.50415"
       x2="1939.0413"
       y2="923.50415"
       gradientUnits="userSpaceOnUse"
       gradientTransform="translate(-4.7603306,20.628099)" />
    <linearGradient
       inkscape:collect="always"
       xlink:href="#linearGradient10129"
       id="linearGradient10131"
       x1="-39.669422"
       y1="528.3967"
       x2="2002.5123"
       y2="528.3967"
       gradientUnits="userSpaceOnUse"
       gradientTransform="translate(-11.107437,-3.1735511)" />
    <linearGradient
       inkscape:collect="always"
       xlink:href="#linearGradient24567"
       id="linearGradient24569"
       x1="-90.217796"
       y1="627.152"
       x2="2051.241"
       y2="627.152"
       gradientUnits="userSpaceOnUse" />
    <linearGradient
       inkscape:collect="always"
       xlink:href="#linearGradient27004"
       id="linearGradient27006"
       x1="-90.019856"
       y1="669.83351"
       x2="2090.055"
       y2="669.83351"
       gradientUnits="userSpaceOnUse" />
    <linearGradient
       inkscape:collect="always"
       xlink:href="#linearGradient27359"
       id="linearGradient27361"
       x1="-78.714479"
       y1="379.86867"
       x2="2087.0283"
       y2="379.86867"
       gradientUnits="userSpaceOnUse" />
    <linearGradient
       inkscape:collect="always"
       xlink:href="#linearGradient27783"
       id="linearGradient27785"
       x1="-263.46275"
       y1="702.70089"
       x2="1952.0356"
       y2="702.70089"
       gradientUnits="userSpaceOnUse" />
    <linearGradient
       inkscape:collect="always"
       xlink:href="#linearGradient27931"
       id="linearGradient27933"
       x1="-125.52772"
       y1="419.08827"
       x2="2049.5901"
       y2="419.08827"
       gradientUnits="userSpaceOnUse" />
    <linearGradient
       inkscape:collect="always"
       xlink:href="#linearGradient28079"
       id="linearGradient28081"
       x1="-168.37215"
       y1="401.02461"
       x2="2030.2118"
       y2="401.02461"
       gradientUnits="userSpaceOnUse" />
    <linearGradient
       inkscape:collect="always"
       xlink:href="#linearGradient28227"
       id="linearGradient28229"
       x1="-255.54974"
       y1="594.55814"
       x2="2020.1376"
       y2="594.55814"
       gradientUnits="userSpaceOnUse" />
    <linearGradient
       inkscape:collect="always"
       xlink:href="#linearGradient28306"
       id="linearGradient28308"
       x1="-240.85931"
       y1="334.27318"
       x2="2019.7385"
       y2="334.27318"
       gradientUnits="userSpaceOnUse" />
  </defs>
  <g
     inkscape:label="Layer 1"
     inkscape:groupmode="layer"
     id="layer1">
    <rect
       style="opacity:1;fill:url(#linearGradient10131);fill-opacity:1;fill-rule:nonzero"
       id="rect10123"
       width="2042.1818"
       height="514.11572"
       x="-50.776859"
       y="268.16528"
       ry="1.5867769" />
    <rect
       style="fill:#ff0000;fill-opacity:0;fill-rule:nonzero"
       id="rect1097"
       width="30.14876"
       height="1.5867769"
       x="1916.8264"
       y="430.01654"
       ry="0.79338843" />
    <path
       style="fill:#ff0000;fill-opacity:0;fill-rule:nonzero"
       d="M 1.5867769,380.82645 C 1926.3471,379.23967 1918.4132,218.97521 1918.4132,218.97521 l 3.1736,522.04958 c 0,0 -1915.2396926,-157.09091 -1921.5868,-163.43801"
       id="path1155" />
    <rect
       style="opacity:1;fill:url(#linearGradient2811);fill-opacity:1;fill-rule:nonzero"
       id="rect2805"
       width="1969.1901"
       height="371.30579"
       x="-34.909092"
       y="758.47931"
       ry="1.5867769" />
    <path
       style="fill:#ff0000;fill-opacity:0;fill-rule:nonzero"
       d="m 0,377.65289 c 1934.281,0 1926.3471,3.17356 1926.3471,3.17356"
       id="path1175" />
    <path
       style="fill:#ff0000;fill-opacity:0;fill-rule:nonzero"
       d="M 1.5867769,382.41322 C 1939.0413,380.82645 1923.1736,244.36364 1923.1736,244.36364 l 3.1735,133.28925"
       id="path1177" />
    <path
       style="fill:url(#linearGradient1899);fill-opacity:1;fill-rule:nonzero"
       d="m 1929.5205,268.16528 -1942.214712,-3.17355 6.3471005,139.63636 c 0,0 -1946.9753885,-12.69421 0,-4.76033 C 1940.628,407.80165 1929.5205,268.16528 1929.5205,268.16528 Z"
       id="path1191" />
    <path
       style="fill:url(#linearGradient2687);fill-opacity:1;fill-rule:nonzero;stroke-width:1.14586"
       d="M 1977.1226,783.86776 H -9.7154069 L -11.335992,612.51144 c 0,0 -2028.973508,4.07991 0,0 C 2017.6373,608.43152 1977.1226,783.86776 1977.1226,783.86776 Z"
       id="path2627" />
    <rect
       style="fill:#172153;fill-opacity:1;fill-rule:nonzero"
       id="rect2797"
       width="1953.3223"
       height="272.92563"
       x="-28.561983"
       y="-4.7603307"
       ry="1.5867769" />
    <path
       style="opacity:1;fill:#172153;fill-opacity:1;fill-rule:nonzero;stroke-width:0.927182"
       d="m 2013.6198,785.8999 -2046.942114,2.7282 c 0,0 -6.347107,-139.13823 -4.76033,-139.13823 1.586776,0 -2077.090956,-15.0051 1.586776,0 C 2042.1818,664.49498 2013.6198,785.8999 2013.6198,785.8999 Z"
       id="path12428" />
    <path
       style="opacity:1;fill:#172153;fill-opacity:1;fill-rule:nonzero;stroke-width:1.02838"
       d="m 2170.7107,176.13223 -2181.543293,22.21488 1.6781107,184.06611 c 0,0 -2179.8652177,26.97521 0,0 C 2170.7107,355.43801 2170.7107,176.13223 2170.7107,176.13223 Z"
       id="path13136" />
    <path
       style="opacity:1;fill:#ffd147;fill-opacity:1;fill-rule:nonzero;stroke-width:0.595802"
       id="path15675"
       sodipodi:type="arc"
       sodipodi:cx="1910.4792"
       sodipodi:cy="515.70251"
       sodipodi:rx="130.11569"
       sodipodi:ry="120.59505"
       sodipodi:start="0"
       sodipodi:end="6.2569579"
       sodipodi:arc-type="arc"
       d="M 2040.5949,515.70251 A 130.11569,120.59505 0 0 1 1911.3324,636.29497 130.11569,120.59505 0 0 1 1780.3747,517.28392 130.11569,120.59505 0 0 1 1907.92,395.1308 130.11569,120.59505 0 0 1 2040.5502,512.53998"
       sodipodi:open="true" />
    <path
       style="opacity:1;fill:#f56f46;fill-opacity:1;fill-rule:nonzero"
       id="path16405"
       sodipodi:type="arc"
       sodipodi:cx="1668.4958"
       sodipodi:cy="391.1405"
       sodipodi:rx="29.355371"
       sodipodi:ry="29.355371"
       sodipodi:start="0"
       sodipodi:end="6.2569579"
       sodipodi:open="true"
       sodipodi:arc-type="arc"
       d="m 1697.8512,391.1405 a 29.355371,29.355371 0 0 1 -29.1629,29.35474 29.355371,29.355371 0 0 1 -29.5453,-28.96979 29.355371,29.355371 0 0 1 28.7755,-29.73464 29.355371,29.355371 0 0 1 29.9226,28.57987" />
    <path
       style="opacity:1;fill:url(#linearGradient24569);fill-opacity:1;fill-rule:nonzero"
       id="path24561"
       d="m -78.117212,516.92472 c 7.812674,-0.44762 15.536905,0.29665 23.271242,1.31315 20.525728,2.12461 41.1309,3.21936 61.7460198,3.97332 29.2771962,0.7537 58.5679432,0.61955 87.8520712,0.58891 36.538239,-0.11194 73.076659,-0.0571 109.614809,0.0513 24.50587,-0.12325 48.98604,-0.0389 73.44813,1.50338 24.32885,1.70649 48.48598,5.2479 72.45515,9.67214 30.27535,6.20204 59.70208,15.83293 89.20163,24.90921 40.30629,12.83819 80.00464,27.48697 119.65585,42.1989 29.12057,11.4685 58.40106,22.51068 87.88056,33.02061 34.46099,12.59977 68.86801,25.33063 103.75414,36.71237 40.21647,13.13746 80.91307,24.71771 121.95244,34.97425 29.55817,7.02819 59.00815,14.55073 88.90919,20.02639 23.59766,4.32136 28.34922,4.67794 52.44028,7.95253 54.7834,6.8269 109.9577,9.50187 165.0982,11.30532 47.0131,1.57842 94.0449,1.13901 141.069,0.57731 68.176,-0.82553 136.3339,-2.71361 204.5008,-4.0664 84.9715,-1.52538 169.9489,-2.53765 254.9309,-3.20548 57.388,-0.79248 114.7695,-1.95618 172.1603,-2.54561 24.731,-0.24751 49.4631,-0.273 74.1951,-0.26304 8.4075,-10e-4 16.8149,0.0258 25.2224,0.0695 0,0 -11.5931,-8.42373 -11.5931,-8.42373 v 0 c -8.3455,0.0355 -16.691,0.0536 -25.0365,0.0691 -24.46,0.0853 -48.9195,0.32324 -73.3737,0.88326 -56.8008,1.26064 -113.594,2.88102 -170.4018,3.80795 -84.8889,0.69681 -169.765,2.25436 -254.648,3.42299 -68.7145,1.04528 -137.4267,2.376 -206.1481,2.86349 -46.9543,0.44852 -93.9153,0.91202 -140.8609,-0.49115 -55.0837,-1.68262 -110.2045,-4.34254 -164.9101,-11.32743 -23.73801,-3.31905 -29.33574,-3.81768 -52.59366,-8.16244 -29.9885,-5.60208 -59.51333,-13.29549 -89.18634,-20.31311 -40.99772,-10.31466 -81.67345,-21.87529 -121.86092,-35.01865 -6.8517,-2.25301 -13.73084,-4.42422 -20.55511,-6.75902 -28.10308,-9.61496 -55.75896,-20.49057 -83.74785,-30.4247 -29.33248,-10.49333 -58.4864,-21.46167 -87.51987,-32.75658 -39.77155,-14.59338 -79.55834,-29.19857 -119.8625,-42.26799 -29.668,-9.14484 -59.26887,-18.85379 -89.71794,-25.1032 -24.02092,-4.37817 -48.23075,-7.84531 -72.59879,-9.57297 -24.37124,-1.49707 -48.7536,-1.48904 -73.16462,-1.19008 -36.47577,0.13436 -72.95205,0.22973 -109.427959,0.0819 -29.450037,-0.10342 -58.907351,-0.13015 -88.3468103,-1.01041 -20.7693277,-0.7904 -41.5419487,-1.88091 -62.1791527,-4.45958 -7.886849,-1.04412 -15.761876,-1.63243 -23.725074,-1.40723 0,0 12.100584,8.79159 12.100584,8.79159 z" />
    <path
       style="opacity:1;fill:url(#linearGradient27006);fill-opacity:1;fill-rule:nonzero"
       id="path26998"
       d="m -77.935539,501.05104 c 7.492476,-0.0825 14.986041,-0.0866 22.478961,-0.0748 6.119679,0.027 12.239386,0.031 18.359086,0.0521 4.768278,0.0827 9.50204,-0.92459 14.068685,-2.22043 4.504164,-1.3824 8.966109,-2.77753 13.623874,-3.55363 5.7166049,-0.65919 11.4913707,-0.60814 17.238045,-0.63258 6.432781,-0.25677 12.761092,0.91996 19.06646,2.00436 6.273165,1.13302 12.452821,2.64634 18.556397,4.48007 6.207296,1.47446 12.503186,2.64357 18.801945,3.67441 5.128472,1.23676 9.991193,3.30935 15.074186,4.7403 7.231478,1.9574 13.499718,6.22011 20.025768,9.74413 3.480352,2.50624 18.041482,9.26414 -0.398298,-0.15703 -1.418821,-0.72489 2.73233,1.64017 4.08016,2.4898 2.77682,1.75041 5.50944,3.57003 8.27298,5.34134 11.831,7.73822 24.26108,14.47651 36.74424,21.08717 9.92001,4.64206 19.8598,9.23905 29.99778,13.38889 18.46738,7.95855 37.49165,14.37281 56.73637,20.14759 25.48153,7.06518 50.9183,14.30078 76.45014,21.18391 24.98717,7.43364 50.52728,12.73061 76.07252,17.82177 33.60606,6.75853 67.60173,11.26764 101.5835,15.63415 28.82922,3.51597 57.65317,7.06253 86.58791,9.59172 38.56074,3.54427 77.29602,4.24616 115.98901,4.92845 40.10619,0.56335 80.21562,1.09303 120.30669,2.35929 61.66427,2.35822 123.27521,5.81602 184.91616,8.69648 70.25187,3.37431 140.64047,3.82329 210.85477,8.05453 13.2016,0.79555 26.3825,1.9033 39.5738,2.85495 52.5473,4.7483 104.8724,11.91606 156.8936,20.68894 27.6704,4.66634 46.877,8.41913 74.3123,13.59074 38.0285,7.42264 75.9848,15.41708 113.5713,24.85789 14.2836,3.58771 28.2865,7.49935 42.4863,11.38726 37.9008,11.01704 75.9983,21.35538 114.0968,31.66572 48.2171,13.66368 96.955,25.37346 145.7649,36.69695 45.2341,9.55854 90.0506,20.94748 135.2308,30.73793 10.9706,2.29167 21.9862,4.38896 33.0351,6.2704 5.8893,1.00285 11.7842,1.72755 17.6349,2.93333 6.4668,1.44686 3.1656,0.70127 9.9034,2.23852 0,0 -11.5798,-8.81818 -11.5798,-8.81818 v 0 c -6.7896,-1.56034 -3.4629,-0.81753 -9.979,-2.23364 -16.5084,-2.98469 -33.2596,-4.68987 -49.6381,-8.45483 -44.8393,-9.38177 -89.289,-20.53087 -134.128,-29.92823 -49.1502,-11.42054 -98.1117,-23.61546 -146.6507,-37.4311 -38.0257,-10.26722 -76.0398,-20.5957 -113.8862,-31.50707 -14.2898,-3.86998 -27.8888,-7.63957 -42.2792,-11.17628 -37.2497,-9.15483 -74.8822,-16.76221 -112.5409,-24.00394 -76.5466,-14.21041 -153.3862,-27.4248 -231.0331,-33.99386 -13.1822,-0.93419 -26.354,-2.03068 -39.5467,-2.80258 -70.1882,-4.10665 -140.5529,-4.3054 -210.76069,-7.98713 -35.37714,-1.79021 -45.24265,-2.20625 -80.06598,-4.28578 -35.5385,-2.12224 -71.06588,-4.50271 -106.65283,-5.70695 -40.0727,-1.29336 -80.16427,-1.8108 -120.2539,-2.29758 -38.84643,-0.67147 -77.72667,-1.6113 -116.42176,-5.36495 -28.88219,-2.67941 -57.67791,-6.16529 -86.48136,-9.57443 -33.99464,-4.2987 -67.99814,-8.80593 -101.57443,-15.74897 -25.62589,-5.23801 -51.22621,-10.73382 -76.33271,-18.13002 -25.48823,-6.86103 -50.92435,-13.92621 -76.31549,-21.13565 -19.39453,-5.96619 -38.55831,-12.58381 -57.1848,-20.67255 -10.15901,-4.2668 -20.18417,-8.85401 -30.10517,-13.64596 -1.33257,-0.70081 -2.66252,-1.40662 -3.99772,-2.10243 -1.28601,-0.67017 -5.0751,-2.7959 -3.86586,-1.99546 2.80837,1.85896 5.78538,3.44964 8.67534,5.17903 1.35009,0.8079 -2.70984,-1.5997 -4.05572,-2.41461 -3.57284,-2.1633 -4.93958,-3.05126 -8.4862,-5.29286 -12.12079,-7.70323 -24.28827,-15.34259 -36.951624,-22.14607 -6.580317,-3.61773 -12.994922,-7.74354 -20.35852,-9.60453 -5.065976,-1.53686 -9.96929,-3.64823 -15.190271,-4.6097 -6.250388,-1.08358 -12.534554,-2.11282 -18.658007,-3.78479 -6.160835,-1.76188 -12.384211,-3.26771 -18.699702,-4.36967 -6.3388944,-1.04888 -12.7106747,-2.02931 -19.1624593,-1.7577 -5.8355485,0.0403 -11.7159247,-0.0872 -17.5047577,0.75794 -4.646971,0.90514 -9.121015,2.37065 -13.662117,3.6827 -4.523616,1.16803 -9.152156,2.03284 -13.845908,1.89612 -6.071873,0.0212 -12.143753,0.0251 -18.215603,0.0521 -7.561575,0.0119 -15.12376,0.007 -22.684907,-0.0748 0,0 12.084317,8.77977 12.084317,8.77977 z" />
    <path
       style="opacity:1;fill:url(#linearGradient27361);fill-opacity:1;fill-rule:nonzero"
       id="path27353"
       d="m -66.646429,532.78067 c 7.982727,-0.10091 15.966241,-0.076 23.949408,-0.0755 7.635715,-0.008 15.271423,0.0123 22.907084,0.039 8.537942,-0.004 17.0757654,-0.0572 25.6136494,-0.0835 15.5396866,0.39599 30.9444236,-1.45401 46.2588096,-3.87472 2.932345,-0.52878 5.87295,-1.01365 8.797035,-1.58635 16.408086,-3.21364 3.806776,-1.1029 20.984881,-4.17878 11.995363,-2.14786 24.052462,-3.93612 36.099962,-5.75955 21.46278,-3.5723 43.10509,-5.82658 64.66196,-8.69973 20.92618,-2.91734 41.93918,-5.23041 62.96881,-7.26613 21.24741,-2.00312 42.61556,-2.09955 63.93784,-2.00595 35.0354,0.41575 70.07152,0.76192 105.10795,1.07693 26.21047,0.10526 52.4002,0.18916 78.56937,1.75589 26.17648,1.37114 52.14065,5.26144 78.09237,8.78855 36.07149,5.39558 72.05632,11.32265 108.1918,16.28396 43.42698,5.87935 87.19597,9.3681 130.99616,10.78272 8.68016,0.28035 17.36624,0.33035 26.04936,0.49553 21.59735,0.005 43.23624,-0.59156 64.71849,-2.97325 10.3475,-1.14721 18.08033,-2.28859 27.98255,-5.03873 3.56691,-0.99063 7.02106,-2.3498 10.53159,-3.5247 16.95845,-7.26858 31.24207,-19.18548 45.71785,-30.36889 16.9367,-13.2721 35.4005,-24.35245 54.2527,-34.64404 21.981,-11.04374 43.1384,-23.55353 64.1385,-36.33324 23.7983,-15.21902 47.7206,-30.23587 71.8203,-44.97538 22.6698,-14.13021 46.2631,-26.72363 70.5816,-37.77995 6.2771,-2.8539 12.6494,-5.49376 18.9742,-8.24064 35.7864,-14.97838 72.3248,-28.12771 109.3001,-39.84259 42.0431,-13.17133 85.8143,-18.74241 129.4644,-23.35567 52.4975,-4.56505 105.1197,-7.43305 157.7177,-10.53676 44.6278,-1.87733 88.9441,-7.56864 133.3901,-11.63651 44.0245,-4.79203 88.1698,-8.43121 132.3729,-11.07834 37.1993,-2.07085 74.4294,-3.51492 111.6223,-5.71074 15.964,-0.95978 31.9164,-2.1368 47.903,-2.64911 0,0 -11.8161,-8.52024 -11.8161,-8.52024 v 0 c -15.7259,0.62582 -31.3886,2.18656 -47.0852,3.28446 -37.0093,2.50838 -74.0714,3.99484 -111.1047,6.07906 -44.2465,2.80581 -88.4253,6.6235 -132.5426,11.0067 -44.219,4.17044 -88.2852,10.15775 -132.6987,12.07917 -52.6862,3.16513 -105.4128,5.87644 -158.005,10.40116 -43.8259,4.61016 -87.8212,10.07036 -130.0397,23.2715 -36.9709,11.74496 -73.5029,24.92167 -109.2356,40.04578 -30.9896,13.41421 -61.8267,27.44597 -90.2955,45.75976 -24.0608,14.79093 -47.9163,29.9076 -71.7994,44.98164 -21.0513,12.7493 -42.3846,24.98469 -64.3371,36.13165 -18.8958,10.40202 -37.45651,21.49557 -54.54852,34.71329 -14.36731,11.04956 -28.52902,22.82052 -45.29766,30.08914 -3.43196,1.17525 -6.80865,2.52633 -10.29586,3.52574 -9.55608,2.73872 -17.40551,4.01891 -27.38143,5.23326 -21.2261,2.58382 -42.6302,3.2852 -63.99514,3.32065 -8.64206,-0.1489 -17.28716,-0.17293 -25.92616,-0.4467 -43.92594,-1.39203 -87.80889,-5.06573 -131.32851,-11.17483 -36.34578,-5.18864 -72.53829,-11.34417 -108.8484,-16.77012 -26.0366,-3.59677 -52.08476,-7.57325 -78.36428,-8.85849 -26.0512,-1.51167 -52.1156,-1.54919 -78.20565,-1.40249 -35.12488,-0.17034 -70.24701,-0.56894 -105.36571,-1.26491 -21.47987,-0.2136 -43.04692,-0.37561 -64.4401,1.83139 -21.00138,2.26717 -42.01544,4.49478 -62.94777,7.3342 -21.49805,2.87501 -43.05668,5.31786 -64.46111,8.8718 -22.128914,3.36463 -44.208091,6.96961 -66.164832,11.33003 -15.378099,2.31669 -30.8284648,4.00066 -46.4113859,3.49576 -8.6145261,-0.0263 -17.2289931,-0.0796 -25.8435771,-0.0835 -7.599898,0.0268 -15.199842,0.0465 -22.799795,0.039 -8.052464,4.3e-4 -16.105251,0.0244 -24.157289,-0.0755 0,0 12.06805,8.76795 12.06805,8.76795 z" />
    <path
       style="opacity:1;fill:url(#linearGradient27785);fill-opacity:1;fill-rule:nonzero"
       id="path27777"
       d="m 1940.1535,861.544 c -16.8777,-3.29784 -33.8436,-6.05836 -50.8377,-8.68273 -3.4883,-0.59016 -6.9841,-1.13788 -10.465,-1.77047 -4.5594,-0.82859 -19.9973,-3.90995 -24.1212,-4.71019 -12.8187,-2.48741 -21.5175,-3.95701 -34.4268,-7.05457 -6.788,-1.62877 -13.5077,-3.53001 -20.2615,-5.29501 -55.0109,-15.9288 -108.0761,-37.59394 -161.1556,-58.89995 -66.5188,-26.99834 -133.3492,-53.20723 -200.8347,-77.69172 -78.1984,-27.28258 -159.8198,-42.9896 -241.4467,-55.90995 -20.8243,-3.2962 -41.7146,-6.1619 -62.5719,-9.24284 -131.4456,-17.95082 -263.3452,-33.0231 -395.58546,-43.78565 -31.50544,-2.56411 -63.05007,-4.62155 -94.5751,-6.93233 -104.56023,-7.33844 -209.31537,-11.63656 -313.84416,-19.44055 -47.76625,-3.56616 -53.87473,-4.42536 -99.69471,-8.94119 -13.99661,-1.50287 -27.98849,-3.05064 -41.98985,-4.50861 -29.18372,-3.03892 -48.40481,-5.01968 -77.61557,-7.08353 -41.486575,-2.93117 -83.003718,-4.08838 -124.569015,-5.16287 -76.774936,-1.46665 -153.584645,-2.0964 -230.365645,-0.73192 -6.41855,0.24493 -12.83709,0.48986 -19.25564,0.73479 0,0 10.64154,7.65208 10.64154,7.65208 v 0 c 6.22109,-0.37545 12.44218,-0.7509 18.66328,-1.12634 76.22705,-2.70452 152.527205,-1.906 228.7730217,-0.34887 35.2424493,1.03266 50.6384843,1.27367 85.4964293,3.10228 39.031599,2.04756 77.906489,5.46198 116.793849,9.32246 13.87981,1.3779 27.75325,2.8191 41.62987,4.22865 15.28564,1.37998 30.55813,2.91424 45.85691,4.13996 121.01515,9.69556 242.48056,12.2797 363.55122,21.16808 31.5985,2.36876 63.21894,4.46111 94.79551,7.10629 133.09048,11.14904 265.74632,27.27101 398.01372,45.6438 20.9677,3.17161 41.9696,6.12532 62.9033,9.51482 82.3053,13.32659 164.5262,29.691 243.2952,57.55447 67.4656,24.57976 134.3588,50.67761 200.8597,77.76035 53.5004,21.60978 106.974,43.59808 162.4592,59.71835 6.8229,1.79536 13.6133,3.71916 20.4687,5.38608 23.0486,5.60435 46.4711,9.74023 69.7898,14.01761 17.2365,2.69433 34.443,5.52977 51.5071,9.18232 0,0 -11.8821,-8.9131 -11.8821,-8.9131 z" />
    <path
       style="opacity:1;fill:url(#linearGradient27933);fill-opacity:1;fill-rule:nonzero"
       id="path27925"
       d="m 2037.7041,299.76193 c -2.6906,-0.63746 -7.4951,-1.80125 -9.8077,-2.19175 -24.154,-4.07855 -48.734,-5.52451 -73.1321,-7.2901 -31.533,-2.02613 -63.1047,-3.45193 -94.6988,-3.96917 -27.3364,0.98862 -54.4858,4.72141 -81.4615,9.07046 -29.7686,4.6645 -58.9284,12.41911 -87.3588,22.31019 -22.8601,8.93677 -45.3771,18.72716 -68.1229,27.95339 -18.6599,7.93486 -37.7219,14.78359 -57.1543,20.54869 -39.7909,11.42143 -80.6941,18.29143 -121.3487,25.81213 -56.9615,10.3422 -114.0943,19.77928 -171.4794,27.4447 -50.7015,6.6438 -101.8233,8.76309 -152.8139,11.94781 -50.8507,2.55017 -101.3716,8.88714 -151.69119,16.40658 -38.20877,5.98076 -76.01863,14.16052 -113.66491,22.95019 -5.37049,1.27138 -10.74835,2.51202 -16.11147,3.81413 -13.32407,3.23495 -18.14962,4.62851 -31.52259,7.77265 -19.17918,4.50925 -38.43398,8.4499 -57.77697,12.18435 -62.36082,10.12197 -125.3706,15.39847 -188.26097,20.97031 -59.94992,5.29864 -119.94083,10.0294 -179.96,14.45334 -46.32605,2.93135 -92.57285,6.95894 -138.89189,9.98138 -52.49131,3.37583 -105.09199,4.85343 -157.686204,4.702 -46.291057,-0.63496 -90.9774123,-10.01673 -135.43389,-22.06856 -23.124611,-6.49682 -46.088924,-13.56519 -68.693966,-21.69276 -2.05322,-0.74065 -4.10645,-1.48131 -6.15967,-2.22196 0,0 11.37889,8.87763 11.37889,8.87763 v 0 c 2.01175,0.70746 4.02349,1.41492 6.03524,2.12238 22.357469,7.81951 45.03637,14.67183 67.880225,20.92579 44.1298886,11.66392 89.105098,20.81277 134.943441,21.28941 52.702794,0.0308 105.414474,-1.37453 158.025634,-4.55819 46.2579,-2.91145 92.42614,-7.05876 138.67216,-10.15656 59.73983,-4.64832 119.44532,-9.65711 179.12177,-15.07085 63.24532,-5.6348 126.64933,-10.47292 189.42179,-20.29239 7.60673,-1.37689 15.23169,-2.65666 22.82021,-4.13068 27.95045,-5.42918 55.47173,-12.7155 83.15231,-19.32247 37.44132,-8.83839 75.02573,-17.17087 113.02587,-23.2685 50.21138,-7.66076 100.64728,-13.97652 151.41538,-16.46758 50.998,-3.11709 102.1327,-5.21605 152.8159,-12.05719 57.3452,-7.915 114.4326,-17.56234 171.4533,-27.53041 41.1047,-7.35132 82.4633,-13.93602 122.7834,-24.9862 19.5279,-5.64138 38.6517,-12.42972 57.2568,-20.6533 22.6377,-9.35407 45.1552,-19.01178 67.9465,-27.9844 28.2915,-9.91733 57.2764,-17.79542 86.9589,-22.29167 27.0722,-4.2361 54.3306,-7.75926 81.7488,-8.57627 31.2652,0.36958 62.5308,1.23925 93.7323,3.35947 28.2953,2.13837 56.949,3.80428 84.529,10.92321 0,0 -11.886,-9.03923 -11.886,-9.03923 z" />
    <path
       style="opacity:1;fill:url(#linearGradient28081);fill-opacity:1;fill-rule:nonzero"
       id="path28073"
       d="m 2018.2406,255.60935 c -29.402,-3.05676 -59.0034,-3.21546 -88.5303,-3.78717 -41.7276,-0.3729 -83.4899,-1.76397 -125.2115,-0.1904 -29.0274,1.0948 -36.4559,2.16045 -66.0441,4.80567 -74.9701,8.48064 -149.3934,21.09961 -223.8632,33.07467 -59.5948,9.42545 -119.0154,20.03438 -177.9599,32.9545 -10.8876,2.38646 -21.7326,4.96321 -32.5989,7.44481 -65.1041,15.08303 -128.6815,35.72379 -192.5911,55.06106 -36.6203,10.75274 -73.4071,21.31337 -110.894,28.6702 -21.75948,4.27032 -26.86813,4.57385 -48.75215,7.40923 -33.85745,3.84114 -67.94645,4.31914 -101.9633,5.40866 -18.85322,0.60385 -37.70305,1.30952 -56.55554,1.93558 -43.6646,1.33952 -87.36249,2.52079 -130.96102,5.3914 -26.77274,1.76277 -41.2646,3.18789 -67.88584,5.53603 -60.24049,5.45686 -120.15511,13.87301 -180.076,22.0099 -79.52986,10.3099 -159.32255,18.50081 -239.14426,26.18216 -44.93805,4.83873 -89.974663,8.81072 -134.883764,13.92136 -27.502163,3.12974 -38.3193182,4.68666 -65.655955,8.30388 -33.359704,4.87945 -66.876667,9.70817 -99.530501,18.31723 -11.4083,3.00776 -16.54319,4.94288 -27.28336,8.60176 -11.61787,4.53612 -6.21664,2.33152 -16.22806,6.55381 0,0 11.92818,7.93735 11.92818,7.93735 v 0 c 9.67807,-4.37612 4.44969,-2.09615 15.71445,-6.77231 10.53271,-3.80125 15.39949,-5.74849 26.62392,-8.89677 32.171957,-9.02372 65.297567,-14.11575 98.288951,-19.01934 10.8096845,-1.44364 21.6073988,-2.97994 32.429053,-4.33093 55.755614,-6.96062 111.743636,-11.93513 167.574306,-18.22674 79.93755,-7.97236 159.84607,-16.32353 239.60866,-25.89626 60.00081,-7.43824 119.82948,-16.37872 180.04687,-21.97329 27.02576,-2.42407 40.57737,-3.80707 67.78205,-5.56329 43.74828,-2.8242 87.60048,-3.83118 131.41438,-5.03047 18.92524,-0.56934 37.84843,-1.2052 56.77373,-1.77263 34.10093,-1.02244 68.27645,-1.50469 102.21208,-5.38692 21.66786,-2.86887 27.18499,-3.22942 48.70542,-7.57506 37.3007,-7.53217 73.8589,-18.36758 110.3006,-29.19094 63.8437,-19.47156 127.4617,-39.86059 192.5213,-55.01108 10.8387,-2.49254 21.6557,-5.08193 32.5163,-7.4776 58.8048,-12.97141 118.0672,-23.75841 177.537,-33.18368 74.5489,-11.99722 149.0786,-24.52595 224.1592,-32.7635 28.0592,-2.30847 38.7029,-3.51909 66.2807,-4.54306 41.8238,-1.55291 83.6885,-0.23722 125.5125,0.47712 30.2577,0.9242 60.5962,1.54958 90.6543,5.45955 0,0 -11.9712,-8.86449 -11.9712,-8.86449 z" />
    <path
       style="opacity:1;fill:url(#linearGradient28229);fill-opacity:1;fill-rule:nonzero"
       id="path28221"
       d="m 2008.1346,655.73884 c -29.4074,0.71512 -58.8008,0.26335 -88.2003,-0.54325 -44.2302,-1.54148 -88.4857,-2.88761 -132.687,-5.16357 -26.8682,-1.38346 -49.9452,-3.06147 -76.8455,-4.88522 -13.1263,-0.9997 -26.2588,-1.92102 -39.3789,-2.9991 -26.0039,-2.13673 -50.3407,-4.22903 -76.1863,-7.8549 -42.7939,-6.00355 -84.9715,-15.53692 -127.232,-24.39649 -16.1467,-3.15046 -32.2567,-6.49466 -48.44,-9.45138 -30.6286,-5.59592 -63.8407,-10.86914 -94.7264,-15.08921 -43.5991,-5.95717 -87.3896,-10.30641 -131.1645,-14.70872 -80.3613,-7.24548 -160.9467,-12.20061 -241.60826,-14.39097 -15.93699,-0.43277 -31.87887,-0.66158 -47.8183,-0.99238 -103.6188,-1.64637 -207.24698,-2.24949 -310.86511,-3.97502 -18.62473,-0.433 -37.25135,-0.79143 -55.87419,-1.29899 -27.93415,-0.76135 -79.90626,-2.57003 -108.24893,-3.49149 -46.10569,-1.49897 -92.21075,-2.88424 -138.30974,-4.58076 -81.96527,-3.64444 -164.00056,-5.16882 -246.003714,-7.64134 -64.96341,-1.80565 -129.898807,-4.44226 -194.837326,-6.9585 -35.07395,-1.32197 -70.16561,-2.05134 -105.25787,-2.66077 0,0 10.8318,7.89032 10.8318,7.89032 v 0 c 34.78258,0.25692 69.56284,0.82823 104.32742,2.0189 64.59463,2.15707 129.182684,4.5405 193.79336,6.18472 81.88738,2.2906 163.79718,3.89782 245.64736,7.38853 100.55075,3.32883 201.13322,5.68845 301.6908,8.80629 103.73668,1.71376 207.48783,2.20748 311.21928,4.23979 96.68372,2.21948 193.40262,5.77059 289.65772,15.65435 43.6852,4.49446 87.4243,8.75887 130.9559,14.61006 31.4027,4.22093 63.3157,9.22751 94.4697,14.95624 16.241,2.98646 32.4014,6.39531 48.6021,9.59296 42.5279,9.09861 84.9701,18.86426 128.0765,24.9097 26.0076,3.64743 49.9304,5.60905 76.0975,7.73296 13.1225,1.0651 26.2555,1.99519 39.3833,2.99279 26.8836,1.88772 50.3269,3.64489 77.1856,5.102 44.4542,2.41167 88.9665,3.76051 133.4417,5.6999 30.0961,1.18958 60.1871,1.94595 90.3073,2.02322 0,0 -12.003,-8.72067 -12.003,-8.72067 z" />
    <path
       style="opacity:1;fill:url(#linearGradient28308);fill-opacity:1;fill-rule:nonzero"
       id="path28300"
       d="m 2007.6379,119.3728 c -12.0618,-0.78389 -24.1519,-1.07148 -36.2307,-1.51296 -22.8478,-0.67834 -45.752,-1.1578 -68.5592,0.76729 -4.6803,0.39505 -9.3382,1.02164 -14.0073,1.53246 -29.2952,3.49664 -57.914,10.94512 -86.5556,17.79229 -22.585,5.76201 -45.3719,10.92195 -67.6795,17.72579 -14.405,4.39356 -19.188,6.4387 -33.6095,11.81298 -33.8351,13.0306 -66.8927,27.9636 -99.301,44.19613 -27.4854,13.80277 -53.3076,30.52861 -79.2122,47.02613 -21.3826,13.84161 -43.3874,26.64957 -65.3887,39.46736 -21.1626,12.47212 -42.7751,24.12215 -64.6346,35.31685 -16.8402,8.27589 -33.9857,16.00281 -51.6217,22.44137 -11.9066,4.34686 -15.7689,5.32775 -27.9611,9.01986 -37.5339,11.65597 -76.7342,15.36787 -115.6999,18.63785 -54.4529,4.73174 -109.0118,7.72206 -163.6353,9.45615 -50.54311,1.23703 -101.09115,2.22038 -151.64677,2.74076 -47.41198,0.11258 -94.81721,0.46334 -142.22093,1.3797 -50.06221,0.48699 -100.05478,3.23404 -150.05678,5.49066 -42.77733,2.49125 -85.6466,3.47003 -128.3714,6.86896 -7.31824,0.58219 -14.62015,1.35417 -21.93022,2.03125 -43.24282,4.06085 -85.2386,15.2865 -126.98054,26.74223 -40.21822,11.45141 -80.78535,21.60613 -121.12276,32.61607 -33.47783,9.63474 -67.24332,18.1958 -101.0094,26.75197 -39.04409,10.06397 -78.728124,17.22388 -118.451485,23.97118 -36.994671,6.13438 -74.228595,10.52308 -111.532335,14.24688 -33.64992,2.96249 -67.36975,5.11392 -101.07829,7.30284 0,0 11.30367,8.08735 11.30367,8.08735 v 0 c 33.39982,-2.71534 66.84569,-4.85075 100.21066,-7.96421 37.442553,-3.67728 74.883126,-7.64077 111.976191,-14.05094 39.639339,-7.05894 79.246062,-14.42826 118.331269,-24.17219 33.83982,-8.37701 67.66537,-16.81452 101.09574,-26.72692 40.22578,-11.02655 80.56601,-21.63175 120.73002,-32.88459 41.75289,-11.31841 83.74962,-22.33031 126.94615,-26.49845 7.26517,-0.69642 14.52239,-1.48152 21.79551,-2.08926 42.68229,-3.56648 85.51453,-4.7806 128.28019,-6.89636 49.95004,-2.24201 99.88393,-5.15917 149.89702,-5.56442 47.45789,-0.78807 94.9196,-0.92147 142.38219,-1.25104 50.40295,-0.51758 100.7889,-1.69836 151.1746,-3.11495 21.0991,-0.67284 37.9389,-1.12674 59.0255,-2.13153 35.0837,-1.67175 70.1052,-4.44539 105.1296,-7.02746 39.2662,-3.16562 78.7933,-6.66443 116.6407,-18.31884 12.0781,-3.65922 16.2851,-4.74282 28.0792,-9.0662 17.6774,-6.48 34.8643,-14.24713 51.7699,-22.50818 21.9331,-11.16027 43.655,-22.7196 64.8222,-35.28694 21.9577,-12.83121 43.8574,-25.75202 65.137,-39.69562 25.7971,-16.52974 51.6542,-33.0649 78.9676,-47.02085 32.2859,-16.29729 65.262,-31.2477 99.0482,-44.1829 13.7482,-4.96684 19.9952,-7.43092 33.713,-11.62189 22.2884,-6.8094 45.0328,-12.04916 67.6318,-17.68837 28.7003,-6.74259 57.4253,-13.83673 86.7244,-17.46915 4.6454,-0.50042 9.2798,-1.1164 13.9362,-1.50126 22.9121,-1.89376 45.925,-1.35038 68.8641,-0.37436 12.3329,0.57188 24.6724,1.06903 36.9852,1.98907 0,0 -12.1006,-8.79159 -12.1006,-8.79159 z" />
  </g>
</svg>
